<?xml version="1.0" encoding="UTF-8" standalone="no"?>
<!DOCTYPE svg PUBLIC "-//W3C//DTD SVG 1.1//EN"
 "http://www.w3.org/Graphics/SVG/1.1/DTD/svg11.dtd">
<!-- Generated by graphviz version 2.40.1 (20161225.0304)
 -->
<!-- Title: dependencies Pages: 1 -->
<svg width="1145pt" height="284pt"
 viewBox="0.00 0.00 1145.00 284.00" xmlns="http://www.w3.org/2000/svg" xmlns:xlink="http://www.w3.org/1999/xlink">
<g id="graph0" class="graph" transform="scale(1 1) rotate(0) translate(4 280)">
<title>dependencies</title>
<polygon fill="#ffffff" stroke="transparent" points="-4,4 -4,-280 1141,-280 1141,4 -4,4"/>
<text text-anchor="start" x="547.5091" y="-42.4" font-family="sans-serif" font-weight="bold" font-size="14.00" fill="#000000">Legend</text>
<polygon fill="#ffffb3" stroke="transparent" points="334.5,-10 334.5,-30 354.5,-30 354.5,-10 334.5,-10"/>
<text text-anchor="start" x="358.129" y="-15.4" font-family="sans-serif" font-size="14.00" fill="#000000"> &#160;Declarations</text>
<polygon fill="#8dd3c7" stroke="transparent" points="447.5,-10 447.5,-30 467.5,-30 467.5,-10 447.5,-10"/>
<text text-anchor="start" x="471.2251" y="-15.4" font-family="sans-serif" font-size="14.00" fill="#000000"> &#160;Module</text>
<polygon fill="#80b1d3" stroke="transparent" points="533.5,-10 533.5,-30 553.5,-30 553.5,-10 533.5,-10"/>
<text text-anchor="start" x="557.2812" y="-15.4" font-family="sans-serif" font-size="14.00" fill="#000000"> &#160;Bootstrap</text>
<polygon fill="#fdb462" stroke="transparent" points="630.5,-10 630.5,-30 650.5,-30 650.5,-10 630.5,-10"/>
<text text-anchor="start" x="654.1732" y="-15.4" font-family="sans-serif" font-size="14.00" fill="#000000"> &#160;Providers</text>
<polygon fill="#fb8072" stroke="transparent" points="726.5,-10 726.5,-30 746.5,-30 746.5,-10 726.5,-10"/>
<text text-anchor="start" x="750.2258" y="-15.4" font-family="sans-serif" font-size="14.00" fill="#000000"> &#160;Exports</text>
<g id="clust1" class="cluster">
<title>cluster_SharedModule</title>
<polygon fill="none" stroke="#000000" stroke-dasharray="1,5" points="8,-70 8,-268 1129,-268 1129,-70 8,-70"/>
</g>
<g id="clust2" class="cluster">
<title>cluster_SharedModule_declarations</title>
<polygon fill="none" stroke="#000000" points="118,-78 118,-130 1121,-130 1121,-78 118,-78"/>
</g>
<g id="clust11" class="cluster">
<title>cluster_SharedModule_exports</title>
<polygon fill="none" stroke="#000000" points="186,-208 186,-260 926,-260 926,-208 186,-208"/>
</g>
<g id="clust13" class="cluster">
<title>cluster_SharedModule_providers</title>
<polygon fill="none" stroke="#000000" points="16,-78 16,-130 110,-130 110,-78 16,-78"/>
</g>
<!-- ErrorpageComponent -->
<g id="node1" class="node">
<title>ErrorpageComponent</title>
<polygon fill="#ffffb3" stroke="#000000" points="1112.7963,-122 975.2037,-122 975.2037,-86 1112.7963,-86 1112.7963,-122"/>
<text text-anchor="middle" x="1044" y="-99.8" font-family="Times,serif" font-size="14.00" fill="#000000">ErrorpageComponent</text>
</g>
<!-- SharedModule -->
<g id="node8" class="node">
<title>SharedModule</title>
<polygon fill="#8dd3c7" stroke="#000000" points="606.4231,-187 603.4231,-191 582.4231,-191 579.4231,-187 507.5769,-187 507.5769,-151 606.4231,-151 606.4231,-187"/>
<text text-anchor="middle" x="557" y="-164.8" font-family="Times,serif" font-size="14.00" fill="#000000">SharedModule</text>
</g>
<!-- ErrorpageComponent&#45;&gt;SharedModule -->
<g id="edge1" class="edge">
<title>ErrorpageComponent&#45;&gt;SharedModule</title>
<path fill="none" stroke="#000000" d="M1044,-122.1061C1044,-141.3391 1044,-169 1044,-169 1044,-169 616.3762,-169 616.3762,-169"/>
<polygon fill="#000000" stroke="#000000" points="616.3762,-165.5001 606.3762,-169 616.3762,-172.5001 616.3762,-165.5001"/>
</g>
<!-- FooterComponent -->
<g id="node2" class="node">
<title>FooterComponent</title>
<polygon fill="#ffffb3" stroke="#000000" points="956.8809,-122 839.1191,-122 839.1191,-86 956.8809,-86 956.8809,-122"/>
<text text-anchor="middle" x="898" y="-99.8" font-family="Times,serif" font-size="14.00" fill="#000000">FooterComponent</text>
</g>
<!-- FooterComponent&#45;&gt;SharedModule -->
<g id="edge2" class="edge">
<title>FooterComponent&#45;&gt;SharedModule</title>
<path fill="none" stroke="#000000" d="M878.7288,-122.0225C878.7288,-139.3734 878.7288,-163 878.7288,-163 878.7288,-163 616.2139,-163 616.2139,-163"/>
<polygon fill="#000000" stroke="#000000" points="616.2139,-159.5001 606.2139,-163 616.2139,-166.5001 616.2139,-159.5001"/>
</g>
<!-- LoginComponent -->
<g id="node3" class="node">
<title>LoginComponent</title>
<polygon fill="#ffffb3" stroke="#000000" points="821.2758,-122 706.7242,-122 706.7242,-86 821.2758,-86 821.2758,-122"/>
<text text-anchor="middle" x="764" y="-99.8" font-family="Times,serif" font-size="14.00" fill="#000000">LoginComponent</text>
</g>
<!-- LoginComponent&#45;&gt;SharedModule -->
<g id="edge3" class="edge">
<title>LoginComponent&#45;&gt;SharedModule</title>
<path fill="none" stroke="#000000" d="M733.1513,-122.2396C733.1513,-137.5706 733.1513,-157 733.1513,-157 733.1513,-157 616.5367,-157 616.5367,-157"/>
<polygon fill="#000000" stroke="#000000" points="616.5368,-153.5001 606.5367,-157 616.5367,-160.5001 616.5368,-153.5001"/>
</g>
<!-- NavbarComponent -->
<g id="node4" class="node">
<title>NavbarComponent</title>
<polygon fill="#ffffb3" stroke="#000000" points="688.0297,-122 565.9703,-122 565.9703,-86 688.0297,-86 688.0297,-122"/>
<text text-anchor="middle" x="627" y="-99.8" font-family="Times,serif" font-size="14.00" fill="#000000">NavbarComponent</text>
</g>
<!-- NavbarComponent&#45;&gt;SharedModule -->
<g id="edge4" class="edge">
<title>NavbarComponent&#45;&gt;SharedModule</title>
<path fill="none" stroke="#000000" d="M585.9734,-122.1061C585.9734,-122.1061 585.9734,-140.991 585.9734,-140.991"/>
<polygon fill="#000000" stroke="#000000" points="582.4734,-140.9909 585.9734,-150.991 589.4734,-140.991 582.4734,-140.9909"/>
</g>
<!-- PersonComponent -->
<g id="node5" class="node">
<title>PersonComponent</title>
<polygon fill="#ffffb3" stroke="#000000" points="547.9356,-122 428.0644,-122 428.0644,-86 547.9356,-86 547.9356,-122"/>
<text text-anchor="middle" x="488" y="-99.8" font-family="Times,serif" font-size="14.00" fill="#000000">PersonComponent</text>
</g>
<!-- PersonComponent&#45;&gt;SharedModule -->
<g id="edge5" class="edge">
<title>PersonComponent&#45;&gt;SharedModule</title>
<path fill="none" stroke="#000000" d="M527.7532,-122.1061C527.7532,-122.1061 527.7532,-140.991 527.7532,-140.991"/>
<polygon fill="#000000" stroke="#000000" points="524.2532,-140.9909 527.7532,-150.991 531.2532,-140.991 524.2532,-140.9909"/>
</g>
<!-- RegisterComponent -->
<g id="node6" class="node">
<title>RegisterComponent</title>
<polygon fill="#ffffb3" stroke="#000000" points="409.9846,-122 282.0154,-122 282.0154,-86 409.9846,-86 409.9846,-122"/>
<text text-anchor="middle" x="346" y="-99.8" font-family="Times,serif" font-size="14.00" fill="#000000">RegisterComponent</text>
</g>
<!-- RegisterComponent&#45;&gt;SharedModule -->
<g id="edge6" class="edge">
<title>RegisterComponent&#45;&gt;SharedModule</title>
<path fill="none" stroke="#000000" d="M381.7625,-122.2396C381.7625,-137.5706 381.7625,-157 381.7625,-157 381.7625,-157 497.7202,-157 497.7202,-157"/>
<polygon fill="#000000" stroke="#000000" points="497.7203,-160.5001 507.7202,-157 497.7202,-153.5001 497.7203,-160.5001"/>
</g>
<!-- ThankyouComponent -->
<g id="node7" class="node">
<title>ThankyouComponent</title>
<polygon fill="#ffffb3" stroke="#000000" points="264.0996,-122 125.9004,-122 125.9004,-86 264.0996,-86 264.0996,-122"/>
<text text-anchor="middle" x="195" y="-99.8" font-family="Times,serif" font-size="14.00" fill="#000000">ThankyouComponent</text>
</g>
<!-- ThankyouComponent&#45;&gt;SharedModule -->
<g id="edge7" class="edge">
<title>ThankyouComponent&#45;&gt;SharedModule</title>
<path fill="none" stroke="#000000" d="M229.125,-122.0225C229.125,-139.3734 229.125,-163 229.125,-163 229.125,-163 497.5588,-163 497.5588,-163"/>
<polygon fill="#000000" stroke="#000000" points="497.5588,-166.5001 507.5588,-163 497.5588,-159.5001 497.5588,-166.5001"/>
</g>
<!-- ErrorpageComponent  -->
<g id="node9" class="node">
<title>ErrorpageComponent </title>
<polygon fill="#fb8072" stroke="#000000" points="918.2961,-252 777.7039,-252 777.7039,-216 918.2961,-216 918.2961,-252"/>
<text text-anchor="middle" x="848" y="-229.8" font-family="Times,serif" font-size="14.00" fill="#000000">ErrorpageComponent </text>
</g>
<!-- SharedModule&#45;&gt;ErrorpageComponent  -->
<g id="edge8" class="edge">
<title>SharedModule&#45;&gt;ErrorpageComponent </title>
<path fill="none" stroke="#000000" stroke-dasharray="5,2" d="M606.3647,-175C677.2667,-175 799.4949,-175 799.4949,-175 799.4949,-175 799.4949,-205.9775 799.4949,-205.9775"/>
<polygon fill="#000000" stroke="#000000" points="795.995,-205.9774 799.4949,-215.9775 802.995,-205.9775 795.995,-205.9774"/>
</g>
<!-- FooterComponent  -->
<g id="node10" class="node">
<title>FooterComponent </title>
<polygon fill="#fb8072" stroke="#000000" points="759.8814,-252 638.1186,-252 638.1186,-216 759.8814,-216 759.8814,-252"/>
<text text-anchor="middle" x="699" y="-229.8" font-family="Times,serif" font-size="14.00" fill="#000000">FooterComponent </text>
</g>
<!-- SharedModule&#45;&gt;FooterComponent  -->
<g id="edge9" class="edge">
<title>SharedModule&#45;&gt;FooterComponent </title>
<path fill="none" stroke="#000000" stroke-dasharray="5,2" d="M606.4096,-181C634.1658,-181 663.287,-181 663.287,-181 663.287,-181 663.287,-205.7604 663.287,-205.7604"/>
<polygon fill="#000000" stroke="#000000" points="659.7871,-205.7604 663.287,-215.7604 666.7871,-205.7604 659.7871,-205.7604"/>
</g>
<!-- NavbarComponent  -->
<g id="node11" class="node">
<title>NavbarComponent </title>
<polygon fill="#fb8072" stroke="#000000" points="620.0288,-252 493.9712,-252 493.9712,-216 620.0288,-216 620.0288,-252"/>
<text text-anchor="middle" x="557" y="-229.8" font-family="Times,serif" font-size="14.00" fill="#000000">NavbarComponent </text>
</g>
<!-- SharedModule&#45;&gt;NavbarComponent  -->
<g id="edge10" class="edge">
<title>SharedModule&#45;&gt;NavbarComponent </title>
<path fill="none" stroke="#000000" stroke-dasharray="5,2" d="M557,-187.1061C557,-187.1061 557,-205.991 557,-205.991"/>
<polygon fill="#000000" stroke="#000000" points="553.5001,-205.9909 557,-215.991 560.5001,-205.991 553.5001,-205.9909"/>
</g>
<!-- PersonComponent  -->
<g id="node12" class="node">
<title>PersonComponent </title>
<polygon fill="#fb8072" stroke="#000000" points="476.4348,-252 353.5652,-252 353.5652,-216 476.4348,-216 476.4348,-252"/>
<text text-anchor="middle" x="415" y="-229.8" font-family="Times,serif" font-size="14.00" fill="#000000">PersonComponent </text>
</g>
<!-- SharedModule&#45;&gt;PersonComponent  -->
<g id="edge11" class="edge">
<title>SharedModule&#45;&gt;PersonComponent </title>
<path fill="none" stroke="#000000" stroke-dasharray="5,2" d="M507.7511,-181C480.6146,-181 452.375,-181 452.375,-181 452.375,-181 452.375,-205.7604 452.375,-205.7604"/>
<polygon fill="#000000" stroke="#000000" points="448.8751,-205.7604 452.375,-215.7604 455.8751,-205.7604 448.8751,-205.7604"/>
</g>
<!-- ThankyouComponent  -->
<g id="node13" class="node">
<title>ThankyouComponent </title>
<polygon fill="#fb8072" stroke="#000000" points="335.6002,-252 194.3998,-252 194.3998,-216 335.6002,-216 335.6002,-252"/>
<text text-anchor="middle" x="265" y="-229.8" font-family="Times,serif" font-size="14.00" fill="#000000">ThankyouComponent </text>
</g>
<!-- SharedModule&#45;&gt;ThankyouComponent  -->
<g id="edge12" class="edge">
<title>SharedModule&#45;&gt;ThankyouComponent </title>
<path fill="none" stroke="#000000" stroke-dasharray="5,2" d="M507.6875,-175C435.3352,-175 308.9038,-175 308.9038,-175 308.9038,-175 308.9038,-205.9775 308.9038,-205.9775"/>
<polygon fill="#000000" stroke="#000000" points="305.4038,-205.9774 308.9038,-215.9775 312.4038,-205.9775 305.4038,-205.9774"/>
</g>
<!-- Logger -->
<g id="node14" class="node">
<title>Logger</title>
<ellipse fill="#fdb462" stroke="#000000" cx="63" cy="-104" rx="38.8459" ry="18"/>
<text text-anchor="middle" x="63" y="-99.8" font-family="Times,serif" font-size="14.00" fill="#000000">Logger</text>
</g>
<!-- Logger&#45;&gt;SharedModule -->
<g id="edge13" class="edge">
<title>Logger&#45;&gt;SharedModule</title>
<path fill="none" stroke="#000000" d="M63,-122.1061C63,-141.3391 63,-169 63,-169 63,-169 497.3716,-169 497.3716,-169"/>
<polygon fill="#000000" stroke="#000000" points="497.3716,-172.5001 507.3716,-169 497.3715,-165.5001 497.3716,-172.5001"/>
</g>
</g>
</svg>
