<?xml version="1.0" encoding="UTF-8" standalone="no"?>
<!DOCTYPE svg PUBLIC "-//W3C//DTD SVG 1.1//EN"
 "http://www.w3.org/Graphics/SVG/1.1/DTD/svg11.dtd">
<!-- Generated by graphviz version 2.40.1 (20161225.0304)
 -->
<!-- Title: dependencies Pages: 1 -->
<svg width="1987pt" height="284pt"
 viewBox="0.00 0.00 1987.00 284.00" xmlns="http://www.w3.org/2000/svg" xmlns:xlink="http://www.w3.org/1999/xlink">
<g id="graph0" class="graph" transform="scale(1 1) rotate(0) translate(4 280)">
<title>dependencies</title>
<polygon fill="#ffffff" stroke="transparent" points="-4,4 -4,-280 1983,-280 1983,4 -4,4"/>
<text text-anchor="start" x="968.5091" y="-42.4" font-family="sans-serif" font-weight="bold" font-size="14.00" fill="#000000">Legend</text>
<polygon fill="#ffffb3" stroke="transparent" points="755.5,-10 755.5,-30 775.5,-30 775.5,-10 755.5,-10"/>
<text text-anchor="start" x="779.129" y="-15.4" font-family="sans-serif" font-size="14.00" fill="#000000"> &#160;Declarations</text>
<polygon fill="#8dd3c7" stroke="transparent" points="868.5,-10 868.5,-30 888.5,-30 888.5,-10 868.5,-10"/>
<text text-anchor="start" x="892.2251" y="-15.4" font-family="sans-serif" font-size="14.00" fill="#000000"> &#160;Module</text>
<polygon fill="#80b1d3" stroke="transparent" points="954.5,-10 954.5,-30 974.5,-30 974.5,-10 954.5,-10"/>
<text text-anchor="start" x="978.2812" y="-15.4" font-family="sans-serif" font-size="14.00" fill="#000000"> &#160;Bootstrap</text>
<polygon fill="#fdb462" stroke="transparent" points="1051.5,-10 1051.5,-30 1071.5,-30 1071.5,-10 1051.5,-10"/>
<text text-anchor="start" x="1075.1732" y="-15.4" font-family="sans-serif" font-size="14.00" fill="#000000"> &#160;Providers</text>
<polygon fill="#fb8072" stroke="transparent" points="1147.5,-10 1147.5,-30 1167.5,-30 1167.5,-10 1147.5,-10"/>
<text text-anchor="start" x="1171.2258" y="-15.4" font-family="sans-serif" font-size="14.00" fill="#000000"> &#160;Exports</text>
<g id="clust1" class="cluster">
<title>cluster_AppModule</title>
<polygon fill="none" stroke="#000000" stroke-dasharray="1,5" points="8,-70 8,-268 1971,-268 1971,-70 8,-70"/>
</g>
<g id="clust2" class="cluster">
<title>cluster_AppModule_declarations</title>
<polygon fill="none" stroke="#000000" points="426,-78 426,-130 1963,-130 1963,-78 426,-78"/>
</g>
<g id="clust14" class="cluster">
<title>cluster_AppModule_imports</title>
<polygon fill="none" stroke="#000000" points="320,-78 320,-130 418,-130 418,-78 320,-78"/>
</g>
<g id="clust16" class="cluster">
<title>cluster_AppModule_bootstrap</title>
<polygon fill="none" stroke="#000000" points="873,-208 873,-260 997,-260 997,-208 873,-208"/>
</g>
<g id="clust17" class="cluster">
<title>cluster_AppModule_providers</title>
<polygon fill="none" stroke="#000000" points="16,-78 16,-130 312,-130 312,-78 16,-78"/>
</g>
<!-- AboutComponent -->
<g id="node1" class="node">
<title>AboutComponent</title>
<polygon fill="#ffffb3" stroke="#000000" points="1955.3301,-122 1838.6699,-122 1838.6699,-86 1955.3301,-86 1955.3301,-122"/>
<text text-anchor="middle" x="1897" y="-99.8" font-family="Times,serif" font-size="14.00" fill="#000000">AboutComponent</text>
</g>
<!-- AppModule -->
<g id="node12" class="node">
<title>AppModule</title>
<polygon fill="#8dd3c7" stroke="#000000" points="976.6571,-187 973.6571,-191 952.6571,-191 949.6571,-187 893.3429,-187 893.3429,-151 976.6571,-151 976.6571,-187"/>
<text text-anchor="middle" x="935" y="-164.8" font-family="Times,serif" font-size="14.00" fill="#000000">AppModule</text>
</g>
<!-- AboutComponent&#45;&gt;AppModule -->
<g id="edge1" class="edge">
<title>AboutComponent&#45;&gt;AppModule</title>
<path fill="none" stroke="#000000" d="M1897,-122.3228C1897,-145.6602 1897,-183 1897,-183 1897,-183 986.9545,-183 986.9545,-183"/>
<polygon fill="#000000" stroke="#000000" points="986.9546,-179.5001 976.9545,-183 986.9545,-186.5001 986.9546,-179.5001"/>
</g>
<!-- AppComponent -->
<g id="node2" class="node">
<title>AppComponent</title>
<polygon fill="#ffffb3" stroke="#000000" points="1820.9399,-122 1715.0601,-122 1715.0601,-86 1820.9399,-86 1820.9399,-122"/>
<text text-anchor="middle" x="1768" y="-99.8" font-family="Times,serif" font-size="14.00" fill="#000000">AppComponent</text>
</g>
<!-- AppComponent&#45;&gt;AppModule -->
<g id="edge2" class="edge">
<title>AppComponent&#45;&gt;AppModule</title>
<path fill="none" stroke="#000000" d="M1768,-122.1554C1768,-144.3519 1768,-179 1768,-179 1768,-179 986.8795,-179 986.8795,-179"/>
<polygon fill="#000000" stroke="#000000" points="986.8795,-175.5001 976.8795,-179 986.8794,-182.5001 986.8795,-175.5001"/>
</g>
<!-- ContactComponent -->
<g id="node3" class="node">
<title>ContactComponent</title>
<polygon fill="#ffffb3" stroke="#000000" points="1697.3795,-122 1572.6205,-122 1572.6205,-86 1697.3795,-86 1697.3795,-122"/>
<text text-anchor="middle" x="1635" y="-99.8" font-family="Times,serif" font-size="14.00" fill="#000000">ContactComponent</text>
</g>
<!-- ContactComponent&#45;&gt;AppModule -->
<g id="edge3" class="edge">
<title>ContactComponent&#45;&gt;AppModule</title>
<path fill="none" stroke="#000000" d="M1635,-122.2843C1635,-143.3211 1635,-175 1635,-175 1635,-175 986.6919,-175 986.6919,-175"/>
<polygon fill="#000000" stroke="#000000" points="986.6919,-171.5001 976.6919,-175 986.6918,-178.5001 986.6919,-171.5001"/>
</g>
<!-- ErrorpageComponent -->
<g id="node4" class="node">
<title>ErrorpageComponent</title>
<polygon fill="#ffffb3" stroke="#000000" points="1554.7963,-122 1417.2037,-122 1417.2037,-86 1554.7963,-86 1554.7963,-122"/>
<text text-anchor="middle" x="1486" y="-99.8" font-family="Times,serif" font-size="14.00" fill="#000000">ErrorpageComponent</text>
</g>
<!-- ErrorpageComponent&#45;&gt;AppModule -->
<g id="edge4" class="edge">
<title>ErrorpageComponent&#45;&gt;AppModule</title>
<path fill="none" stroke="#000000" d="M1486,-122.308C1486,-142.1455 1486,-171 1486,-171 1486,-171 986.8668,-171 986.8668,-171"/>
<polygon fill="#000000" stroke="#000000" points="986.8668,-167.5001 976.8668,-171 986.8668,-174.5001 986.8668,-167.5001"/>
</g>
<!-- FooterComponent -->
<g id="node5" class="node">
<title>FooterComponent</title>
<polygon fill="#ffffb3" stroke="#000000" points="1398.8809,-122 1281.1191,-122 1281.1191,-86 1398.8809,-86 1398.8809,-122"/>
<text text-anchor="middle" x="1340" y="-99.8" font-family="Times,serif" font-size="14.00" fill="#000000">FooterComponent</text>
</g>
<!-- FooterComponent&#45;&gt;AppModule -->
<g id="edge5" class="edge">
<title>FooterComponent&#45;&gt;AppModule</title>
<path fill="none" stroke="#000000" d="M1359.6468,-122.2222C1359.6468,-140.8285 1359.6468,-167 1359.6468,-167 1359.6468,-167 986.8789,-167 986.8789,-167"/>
<polygon fill="#000000" stroke="#000000" points="986.879,-163.5001 976.8789,-167 986.8789,-170.5001 986.879,-163.5001"/>
</g>
<!-- FooterComponent&#45;&gt;AppModule -->
<g id="edge6" class="edge">
<title>FooterComponent&#45;&gt;AppModule</title>
<path fill="none" stroke="#000000" d="M1320.3532,-122.0225C1320.3532,-139.3734 1320.3532,-163 1320.3532,-163 1320.3532,-163 986.9731,-163 986.9731,-163"/>
<polygon fill="#000000" stroke="#000000" points="986.9732,-159.5001 976.9731,-163 986.9731,-166.5001 986.9732,-159.5001"/>
</g>
<!-- HomeComponent -->
<g id="node6" class="node">
<title>HomeComponent</title>
<polygon fill="#ffffb3" stroke="#000000" points="1262.5451,-122 1147.4549,-122 1147.4549,-86 1262.5451,-86 1262.5451,-122"/>
<text text-anchor="middle" x="1205" y="-99.8" font-family="Times,serif" font-size="14.00" fill="#000000">HomeComponent</text>
</g>
<!-- HomeComponent&#45;&gt;AppModule -->
<g id="edge7" class="edge">
<title>HomeComponent&#45;&gt;AppModule</title>
<path fill="none" stroke="#000000" d="M1205,-122.0091C1205,-138.0494 1205,-159 1205,-159 1205,-159 986.8913,-159 986.8913,-159"/>
<polygon fill="#000000" stroke="#000000" points="986.8913,-155.5001 976.8913,-159 986.8912,-162.5001 986.8913,-155.5001"/>
</g>
<!-- LoginComponent -->
<g id="node7" class="node">
<title>LoginComponent</title>
<polygon fill="#ffffb3" stroke="#000000" points="1129.2758,-122 1014.7242,-122 1014.7242,-86 1129.2758,-86 1129.2758,-122"/>
<text text-anchor="middle" x="1072" y="-99.8" font-family="Times,serif" font-size="14.00" fill="#000000">LoginComponent</text>
</g>
<!-- LoginComponent&#45;&gt;AppModule -->
<g id="edge8" class="edge">
<title>LoginComponent&#45;&gt;AppModule</title>
<path fill="none" stroke="#000000" d="M1072,-122.1243C1072,-136.7832 1072,-155 1072,-155 1072,-155 986.8489,-155 986.8489,-155"/>
<polygon fill="#000000" stroke="#000000" points="986.849,-151.5001 976.8489,-155 986.8489,-158.5001 986.849,-151.5001"/>
</g>
<!-- NavbarComponent -->
<g id="node8" class="node">
<title>NavbarComponent</title>
<polygon fill="#ffffb3" stroke="#000000" points="996.0297,-122 873.9703,-122 873.9703,-86 996.0297,-86 996.0297,-122"/>
<text text-anchor="middle" x="935" y="-99.8" font-family="Times,serif" font-size="14.00" fill="#000000">NavbarComponent</text>
</g>
<!-- NavbarComponent&#45;&gt;AppModule -->
<g id="edge9" class="edge">
<title>NavbarComponent&#45;&gt;AppModule</title>
<path fill="none" stroke="#000000" d="M921.0573,-122.1061C921.0573,-122.1061 921.0573,-140.991 921.0573,-140.991"/>
<polygon fill="#000000" stroke="#000000" points="917.5574,-140.9909 921.0573,-150.991 924.5574,-140.991 917.5574,-140.9909"/>
</g>
<!-- NavbarComponent&#45;&gt;AppModule -->
<g id="edge10" class="edge">
<title>NavbarComponent&#45;&gt;AppModule</title>
<path fill="none" stroke="#000000" d="M948.9427,-122.1061C948.9427,-122.1061 948.9427,-140.991 948.9427,-140.991"/>
<polygon fill="#000000" stroke="#000000" points="945.4428,-140.9909 948.9427,-150.991 952.4428,-140.991 945.4428,-140.9909"/>
</g>
<!-- PersonComponent -->
<g id="node9" class="node">
<title>PersonComponent</title>
<polygon fill="#ffffb3" stroke="#000000" points="855.9356,-122 736.0644,-122 736.0644,-86 855.9356,-86 855.9356,-122"/>
<text text-anchor="middle" x="796" y="-99.8" font-family="Times,serif" font-size="14.00" fill="#000000">PersonComponent</text>
</g>
<!-- PersonComponent&#45;&gt;AppModule -->
<g id="edge11" class="edge">
<title>PersonComponent&#45;&gt;AppModule</title>
<path fill="none" stroke="#000000" d="M776.0942,-122.0091C776.0942,-138.0494 776.0942,-159 776.0942,-159 776.0942,-159 883.2494,-159 883.2494,-159"/>
<polygon fill="#000000" stroke="#000000" points="883.2494,-162.5001 893.2494,-159 883.2493,-155.5001 883.2494,-162.5001"/>
</g>
<!-- PersonComponent&#45;&gt;AppModule -->
<g id="edge12" class="edge">
<title>PersonComponent&#45;&gt;AppModule</title>
<path fill="none" stroke="#000000" d="M815.9058,-122.1243C815.9058,-136.7832 815.9058,-155 815.9058,-155 815.9058,-155 883.0118,-155 883.0118,-155"/>
<polygon fill="#000000" stroke="#000000" points="883.0119,-158.5001 893.0118,-155 883.0118,-151.5001 883.0119,-158.5001"/>
</g>
<!-- RegisterComponent -->
<g id="node10" class="node">
<title>RegisterComponent</title>
<polygon fill="#ffffb3" stroke="#000000" points="717.9846,-122 590.0154,-122 590.0154,-86 717.9846,-86 717.9846,-122"/>
<text text-anchor="middle" x="654" y="-99.8" font-family="Times,serif" font-size="14.00" fill="#000000">RegisterComponent</text>
</g>
<!-- RegisterComponent&#45;&gt;AppModule -->
<g id="edge13" class="edge">
<title>RegisterComponent&#45;&gt;AppModule</title>
<path fill="none" stroke="#000000" d="M632.6692,-122.2222C632.6692,-140.8285 632.6692,-167 632.6692,-167 632.6692,-167 883.2796,-167 883.2796,-167"/>
<polygon fill="#000000" stroke="#000000" points="883.2797,-170.5001 893.2796,-167 883.2796,-163.5001 883.2797,-170.5001"/>
</g>
<!-- RegisterComponent&#45;&gt;AppModule -->
<g id="edge14" class="edge">
<title>RegisterComponent&#45;&gt;AppModule</title>
<path fill="none" stroke="#000000" d="M675.3308,-122.0225C675.3308,-139.3734 675.3308,-163 675.3308,-163 675.3308,-163 883.2796,-163 883.2796,-163"/>
<polygon fill="#000000" stroke="#000000" points="883.2797,-166.5001 893.2796,-163 883.2796,-159.5001 883.2797,-166.5001"/>
</g>
<!-- ThankyouComponent -->
<g id="node11" class="node">
<title>ThankyouComponent</title>
<polygon fill="#ffffb3" stroke="#000000" points="572.0996,-122 433.9004,-122 433.9004,-86 572.0996,-86 572.0996,-122"/>
<text text-anchor="middle" x="503" y="-99.8" font-family="Times,serif" font-size="14.00" fill="#000000">ThankyouComponent</text>
</g>
<!-- ThankyouComponent&#45;&gt;AppModule -->
<g id="edge15" class="edge">
<title>ThankyouComponent&#45;&gt;AppModule</title>
<path fill="none" stroke="#000000" d="M503,-122.308C503,-142.1455 503,-171 503,-171 503,-171 883.1855,-171 883.1855,-171"/>
<polygon fill="#000000" stroke="#000000" points="883.1855,-174.5001 893.1855,-171 883.1855,-167.5001 883.1855,-174.5001"/>
</g>
<!-- AppComponent  -->
<g id="node14" class="node">
<title>AppComponent </title>
<polygon fill="#80b1d3" stroke="#000000" points="989.439,-252 880.561,-252 880.561,-216 989.439,-216 989.439,-252"/>
<text text-anchor="middle" x="935" y="-229.8" font-family="Times,serif" font-size="14.00" fill="#000000">AppComponent </text>
</g>
<!-- AppModule&#45;&gt;AppComponent  -->
<g id="edge17" class="edge">
<title>AppModule&#45;&gt;AppComponent </title>
<path fill="none" stroke="#000000" stroke-dasharray="1,5" d="M935,-187.1061C935,-187.1061 935,-205.991 935,-205.991"/>
<polygon fill="#000000" stroke="#000000" points="931.5001,-205.9909 935,-215.991 938.5001,-205.991 931.5001,-205.9909"/>
</g>
<!-- IamModule -->
<g id="node13" class="node">
<title>IamModule</title>
<polygon fill="#8dd3c7" stroke="#000000" points="409.8162,-122 406.8162,-126 385.8162,-126 382.8162,-122 328.1838,-122 328.1838,-86 409.8162,-86 409.8162,-122"/>
<text text-anchor="middle" x="369" y="-99.8" font-family="Times,serif" font-size="14.00" fill="#000000">IamModule</text>
</g>
<!-- IamModule&#45;&gt;AppModule -->
<g id="edge16" class="edge">
<title>IamModule&#45;&gt;AppModule</title>
<path fill="none" stroke="#000000" d="M369,-122.2843C369,-143.3211 369,-175 369,-175 369,-175 882.9204,-175 882.9204,-175"/>
<polygon fill="#000000" stroke="#000000" points="882.9205,-178.5001 892.9204,-175 882.9204,-171.5001 882.9205,-178.5001"/>
</g>
<!-- Logger -->
<g id="node15" class="node">
<title>Logger</title>
<ellipse fill="#fdb462" stroke="#000000" cx="265" cy="-104" rx="38.8459" ry="18"/>
<text text-anchor="middle" x="265" y="-99.8" font-family="Times,serif" font-size="14.00" fill="#000000">Logger</text>
</g>
<!-- Logger&#45;&gt;AppModule -->
<g id="edge18" class="edge">
<title>Logger&#45;&gt;AppModule</title>
<path fill="none" stroke="#000000" d="M265,-122.1554C265,-144.3519 265,-179 265,-179 265,-179 883.3416,-179 883.3416,-179"/>
<polygon fill="#000000" stroke="#000000" points="883.3417,-182.5001 893.3416,-179 883.3416,-175.5001 883.3417,-182.5001"/>
</g>
<!-- MysqlserviceService -->
<g id="node16" class="node">
<title>MysqlserviceService</title>
<ellipse fill="#fdb462" stroke="#000000" cx="116" cy="-104" rx="92.0296" ry="18"/>
<text text-anchor="middle" x="116" y="-99.8" font-family="Times,serif" font-size="14.00" fill="#000000">MysqlserviceService</text>
</g>
<!-- MysqlserviceService&#45;&gt;AppModule -->
<g id="edge19" class="edge">
<title>MysqlserviceService&#45;&gt;AppModule</title>
<path fill="none" stroke="#000000" d="M116,-122.3228C116,-145.6602 116,-183 116,-183 116,-183 883.2597,-183 883.2597,-183"/>
<polygon fill="#000000" stroke="#000000" points="883.2597,-186.5001 893.2597,-183 883.2597,-179.5001 883.2597,-186.5001"/>
</g>
</g>
</svg>
