<?xml version="1.0" encoding="UTF-8" standalone="no"?>
<!DOCTYPE svg PUBLIC "-//W3C//DTD SVG 1.1//EN"
 "http://www.w3.org/Graphics/SVG/1.1/DTD/svg11.dtd">
<!-- Generated by graphviz version 2.40.1 (20161225.0304)
 -->
<!-- Title: dependencies Pages: 1 -->
<svg width="1679pt" height="284pt"
 viewBox="0.00 0.00 1679.00 284.00" xmlns="http://www.w3.org/2000/svg" xmlns:xlink="http://www.w3.org/1999/xlink">
<g id="graph0" class="graph" transform="scale(1 1) rotate(0) translate(4 280)">
<title>dependencies</title>
<polygon fill="#ffffff" stroke="transparent" points="-4,4 -4,-280 1675,-280 1675,4 -4,4"/>
<text text-anchor="start" x="814.5091" y="-42.4" font-family="sans-serif" font-weight="bold" font-size="14.00" fill="#000000">Legend</text>
<polygon fill="#ffffb3" stroke="transparent" points="601.5,-10 601.5,-30 621.5,-30 621.5,-10 601.5,-10"/>
<text text-anchor="start" x="625.129" y="-15.4" font-family="sans-serif" font-size="14.00" fill="#000000"> &#160;Declarations</text>
<polygon fill="#8dd3c7" stroke="transparent" points="714.5,-10 714.5,-30 734.5,-30 734.5,-10 714.5,-10"/>
<text text-anchor="start" x="738.2251" y="-15.4" font-family="sans-serif" font-size="14.00" fill="#000000"> &#160;Module</text>
<polygon fill="#80b1d3" stroke="transparent" points="800.5,-10 800.5,-30 820.5,-30 820.5,-10 800.5,-10"/>
<text text-anchor="start" x="824.2812" y="-15.4" font-family="sans-serif" font-size="14.00" fill="#000000"> &#160;Bootstrap</text>
<polygon fill="#fdb462" stroke="transparent" points="897.5,-10 897.5,-30 917.5,-30 917.5,-10 897.5,-10"/>
<text text-anchor="start" x="921.1732" y="-15.4" font-family="sans-serif" font-size="14.00" fill="#000000"> &#160;Providers</text>
<polygon fill="#fb8072" stroke="transparent" points="993.5,-10 993.5,-30 1013.5,-30 1013.5,-10 993.5,-10"/>
<text text-anchor="start" x="1017.2258" y="-15.4" font-family="sans-serif" font-size="14.00" fill="#000000"> &#160;Exports</text>
<g id="clust1" class="cluster">
<title>cluster_AppModule</title>
<polygon fill="none" stroke="#000000" stroke-dasharray="1,5" points="8,-70 8,-268 1663,-268 1663,-70 8,-70"/>
</g>
<g id="clust2" class="cluster">
<title>cluster_AppModule_declarations</title>
<polygon fill="none" stroke="#000000" points="118,-78 118,-130 1655,-130 1655,-78 118,-78"/>
</g>
<g id="clust16" class="cluster">
<title>cluster_AppModule_bootstrap</title>
<polygon fill="none" stroke="#000000" points="633,-208 633,-260 757,-260 757,-208 633,-208"/>
</g>
<g id="clust17" class="cluster">
<title>cluster_AppModule_providers</title>
<polygon fill="none" stroke="#000000" points="16,-78 16,-130 110,-130 110,-78 16,-78"/>
</g>
<!-- AboutComponent -->
<g id="node1" class="node">
<title>AboutComponent</title>
<polygon fill="#ffffb3" stroke="#000000" points="1647.3301,-122 1530.6699,-122 1530.6699,-86 1647.3301,-86 1647.3301,-122"/>
<text text-anchor="middle" x="1589" y="-99.8" font-family="Times,serif" font-size="14.00" fill="#000000">AboutComponent</text>
</g>
<!-- AppModule -->
<g id="node12" class="node">
<title>AppModule</title>
<polygon fill="#8dd3c7" stroke="#000000" points="736.6571,-187 733.6571,-191 712.6571,-191 709.6571,-187 653.3429,-187 653.3429,-151 736.6571,-151 736.6571,-187"/>
<text text-anchor="middle" x="695" y="-164.8" font-family="Times,serif" font-size="14.00" fill="#000000">AppModule</text>
</g>
<!-- AboutComponent&#45;&gt;AppModule -->
<g id="edge1" class="edge">
<title>AboutComponent&#45;&gt;AppModule</title>
<path fill="none" stroke="#000000" d="M1589,-122.3228C1589,-145.6602 1589,-183 1589,-183 1589,-183 746.9204,-183 746.9204,-183"/>
<polygon fill="#000000" stroke="#000000" points="746.9204,-179.5001 736.9204,-183 746.9203,-186.5001 746.9204,-179.5001"/>
</g>
<!-- AppComponent -->
<g id="node2" class="node">
<title>AppComponent</title>
<polygon fill="#ffffb3" stroke="#000000" points="1512.9399,-122 1407.0601,-122 1407.0601,-86 1512.9399,-86 1512.9399,-122"/>
<text text-anchor="middle" x="1460" y="-99.8" font-family="Times,serif" font-size="14.00" fill="#000000">AppComponent</text>
</g>
<!-- AppComponent&#45;&gt;AppModule -->
<g id="edge2" class="edge">
<title>AppComponent&#45;&gt;AppModule</title>
<path fill="none" stroke="#000000" d="M1460,-122.2921C1460,-144.2057 1460,-178 1460,-178 1460,-178 746.673,-178 746.673,-178"/>
<polygon fill="#000000" stroke="#000000" points="746.673,-174.5001 736.673,-178 746.673,-181.5001 746.673,-174.5001"/>
</g>
<!-- ContactComponent -->
<g id="node3" class="node">
<title>ContactComponent</title>
<polygon fill="#ffffb3" stroke="#000000" points="1389.3795,-122 1264.6205,-122 1264.6205,-86 1389.3795,-86 1389.3795,-122"/>
<text text-anchor="middle" x="1327" y="-99.8" font-family="Times,serif" font-size="14.00" fill="#000000">ContactComponent</text>
</g>
<!-- ContactComponent&#45;&gt;AppModule -->
<g id="edge3" class="edge">
<title>ContactComponent&#45;&gt;AppModule</title>
<path fill="none" stroke="#000000" d="M1327,-122.0267C1327,-142.7672 1327,-174 1327,-174 1327,-174 746.9567,-174 746.9567,-174"/>
<polygon fill="#000000" stroke="#000000" points="746.9568,-170.5001 736.9567,-174 746.9567,-177.5001 746.9568,-170.5001"/>
</g>
<!-- ErrorpageComponent -->
<g id="node4" class="node">
<title>ErrorpageComponent</title>
<polygon fill="#ffffb3" stroke="#000000" points="1246.7963,-122 1109.2037,-122 1109.2037,-86 1246.7963,-86 1246.7963,-122"/>
<text text-anchor="middle" x="1178" y="-99.8" font-family="Times,serif" font-size="14.00" fill="#000000">ErrorpageComponent</text>
</g>
<!-- ErrorpageComponent&#45;&gt;AppModule -->
<g id="edge4" class="edge">
<title>ErrorpageComponent&#45;&gt;AppModule</title>
<path fill="none" stroke="#000000" d="M1178,-122.1061C1178,-141.3391 1178,-169 1178,-169 1178,-169 747.0181,-169 747.0181,-169"/>
<polygon fill="#000000" stroke="#000000" points="747.0182,-165.5001 737.0181,-169 747.0181,-172.5001 747.0182,-165.5001"/>
</g>
<!-- FooterComponent -->
<g id="node5" class="node">
<title>FooterComponent</title>
<polygon fill="#ffffb3" stroke="#000000" points="1090.8809,-122 973.1191,-122 973.1191,-86 1090.8809,-86 1090.8809,-122"/>
<text text-anchor="middle" x="1032" y="-99.8" font-family="Times,serif" font-size="14.00" fill="#000000">FooterComponent</text>
</g>
<!-- FooterComponent&#45;&gt;AppModule -->
<g id="edge5" class="edge">
<title>FooterComponent&#45;&gt;AppModule</title>
<path fill="none" stroke="#000000" d="M1051.6468,-122.302C1051.6468,-140.2699 1051.6468,-165 1051.6468,-165 1051.6468,-165 746.9607,-165 746.9607,-165"/>
<polygon fill="#000000" stroke="#000000" points="746.9607,-161.5001 736.9607,-165 746.9606,-168.5001 746.9607,-161.5001"/>
</g>
<!-- FooterComponent&#45;&gt;AppModule -->
<g id="edge6" class="edge">
<title>FooterComponent&#45;&gt;AppModule</title>
<path fill="none" stroke="#000000" d="M1012.3532,-122.027C1012.3532,-138.3976 1012.3532,-160 1012.3532,-160 1012.3532,-160 746.8147,-160 746.8147,-160"/>
<polygon fill="#000000" stroke="#000000" points="746.8148,-156.5001 736.8147,-160 746.8147,-163.5001 746.8148,-156.5001"/>
</g>
<!-- HomeComponent -->
<g id="node6" class="node">
<title>HomeComponent</title>
<polygon fill="#ffffb3" stroke="#000000" points="954.5451,-122 839.4549,-122 839.4549,-86 954.5451,-86 954.5451,-122"/>
<text text-anchor="middle" x="897" y="-99.8" font-family="Times,serif" font-size="14.00" fill="#000000">HomeComponent</text>
</g>
<!-- HomeComponent&#45;&gt;AppModule -->
<g id="edge7" class="edge">
<title>HomeComponent&#45;&gt;AppModule</title>
<path fill="none" stroke="#000000" d="M897,-122.1871C897,-137.1824 897,-156 897,-156 897,-156 746.8545,-156 746.8545,-156"/>
<polygon fill="#000000" stroke="#000000" points="746.8546,-152.5001 736.8545,-156 746.8545,-159.5001 746.8546,-152.5001"/>
</g>
<!-- LoginComponent -->
<g id="node7" class="node">
<title>LoginComponent</title>
<polygon fill="#ffffb3" stroke="#000000" points="821.2758,-122 706.7242,-122 706.7242,-86 821.2758,-86 821.2758,-122"/>
<text text-anchor="middle" x="764" y="-99.8" font-family="Times,serif" font-size="14.00" fill="#000000">LoginComponent</text>
</g>
<!-- LoginComponent&#45;&gt;AppModule -->
<g id="edge8" class="edge">
<title>LoginComponent&#45;&gt;AppModule</title>
<path fill="none" stroke="#000000" d="M721.7202,-122.1061C721.7202,-122.1061 721.7202,-140.991 721.7202,-140.991"/>
<polygon fill="#000000" stroke="#000000" points="718.2203,-140.9909 721.7202,-150.991 725.2203,-140.991 718.2203,-140.9909"/>
</g>
<!-- NavbarComponent -->
<g id="node8" class="node">
<title>NavbarComponent</title>
<polygon fill="#ffffb3" stroke="#000000" points="688.0297,-122 565.9703,-122 565.9703,-86 688.0297,-86 688.0297,-122"/>
<text text-anchor="middle" x="627" y="-99.8" font-family="Times,serif" font-size="14.00" fill="#000000">NavbarComponent</text>
</g>
<!-- NavbarComponent&#45;&gt;AppModule -->
<g id="edge9" class="edge">
<title>NavbarComponent&#45;&gt;AppModule</title>
<path fill="none" stroke="#000000" d="M664.8693,-122.1061C664.8693,-122.1061 664.8693,-140.991 664.8693,-140.991"/>
<polygon fill="#000000" stroke="#000000" points="661.3694,-140.9909 664.8693,-150.991 668.3694,-140.991 661.3694,-140.9909"/>
</g>
<!-- NavbarComponent&#45;&gt;AppModule -->
<g id="edge10" class="edge">
<title>NavbarComponent&#45;&gt;AppModule</title>
<path fill="none" stroke="#000000" d="M676.5669,-122.1061C676.5669,-122.1061 676.5669,-140.991 676.5669,-140.991"/>
<polygon fill="#000000" stroke="#000000" points="673.067,-140.9909 676.5669,-150.991 680.067,-140.991 673.067,-140.9909"/>
</g>
<!-- PersonComponent -->
<g id="node9" class="node">
<title>PersonComponent</title>
<polygon fill="#ffffb3" stroke="#000000" points="547.9356,-122 428.0644,-122 428.0644,-86 547.9356,-86 547.9356,-122"/>
<text text-anchor="middle" x="488" y="-99.8" font-family="Times,serif" font-size="14.00" fill="#000000">PersonComponent</text>
</g>
<!-- PersonComponent&#45;&gt;AppModule -->
<g id="edge11" class="edge">
<title>PersonComponent&#45;&gt;AppModule</title>
<path fill="none" stroke="#000000" d="M468.0942,-122.0336C468.0942,-139.0597 468.0942,-162 468.0942,-162 468.0942,-162 643.1175,-162 643.1175,-162"/>
<polygon fill="#000000" stroke="#000000" points="643.1176,-165.5001 653.1175,-162 643.1175,-158.5001 643.1176,-165.5001"/>
</g>
<!-- PersonComponent&#45;&gt;AppModule -->
<g id="edge12" class="edge">
<title>PersonComponent&#45;&gt;AppModule</title>
<path fill="none" stroke="#000000" d="M507.9058,-122.2396C507.9058,-137.5706 507.9058,-157 507.9058,-157 507.9058,-157 643.0124,-157 643.0124,-157"/>
<polygon fill="#000000" stroke="#000000" points="643.0124,-160.5001 653.0124,-157 643.0124,-153.5001 643.0124,-160.5001"/>
</g>
<!-- RegisterComponent -->
<g id="node10" class="node">
<title>RegisterComponent</title>
<polygon fill="#ffffb3" stroke="#000000" points="409.9846,-122 282.0154,-122 282.0154,-86 409.9846,-86 409.9846,-122"/>
<text text-anchor="middle" x="346" y="-99.8" font-family="Times,serif" font-size="14.00" fill="#000000">RegisterComponent</text>
</g>
<!-- RegisterComponent&#45;&gt;AppModule -->
<g id="edge13" class="edge">
<title>RegisterComponent&#45;&gt;AppModule</title>
<path fill="none" stroke="#000000" d="M324.6692,-122.2228C324.6692,-142.3652 324.6692,-172 324.6692,-172 324.6692,-172 643.2382,-172 643.2382,-172"/>
<polygon fill="#000000" stroke="#000000" points="643.2383,-175.5001 653.2382,-172 643.2382,-168.5001 643.2383,-175.5001"/>
</g>
<!-- RegisterComponent&#45;&gt;AppModule -->
<g id="edge14" class="edge">
<title>RegisterComponent&#45;&gt;AppModule</title>
<path fill="none" stroke="#000000" d="M367.3308,-122.2222C367.3308,-140.8285 367.3308,-167 367.3308,-167 367.3308,-167 643.1676,-167 643.1676,-167"/>
<polygon fill="#000000" stroke="#000000" points="643.1677,-170.5001 653.1676,-167 643.1676,-163.5001 643.1677,-170.5001"/>
</g>
<!-- ThankyouComponent -->
<g id="node11" class="node">
<title>ThankyouComponent</title>
<polygon fill="#ffffb3" stroke="#000000" points="264.0996,-122 125.9004,-122 125.9004,-86 264.0996,-86 264.0996,-122"/>
<text text-anchor="middle" x="195" y="-99.8" font-family="Times,serif" font-size="14.00" fill="#000000">ThankyouComponent</text>
</g>
<!-- ThankyouComponent&#45;&gt;AppModule -->
<g id="edge15" class="edge">
<title>ThankyouComponent&#45;&gt;AppModule</title>
<path fill="none" stroke="#000000" d="M195,-122.0449C195,-143.6623 195,-177 195,-177 195,-177 643.2303,-177 643.2303,-177"/>
<polygon fill="#000000" stroke="#000000" points="643.2303,-180.5001 653.2303,-177 643.2302,-173.5001 643.2303,-180.5001"/>
</g>
<!-- AppComponent  -->
<g id="node13" class="node">
<title>AppComponent </title>
<polygon fill="#80b1d3" stroke="#000000" points="749.439,-252 640.561,-252 640.561,-216 749.439,-216 749.439,-252"/>
<text text-anchor="middle" x="695" y="-229.8" font-family="Times,serif" font-size="14.00" fill="#000000">AppComponent </text>
</g>
<!-- AppModule&#45;&gt;AppComponent  -->
<g id="edge16" class="edge">
<title>AppModule&#45;&gt;AppComponent </title>
<path fill="none" stroke="#000000" stroke-dasharray="1,5" d="M695,-187.1061C695,-187.1061 695,-205.991 695,-205.991"/>
<polygon fill="#000000" stroke="#000000" points="691.5001,-205.9909 695,-215.991 698.5001,-205.991 691.5001,-205.9909"/>
</g>
<!-- Logger -->
<g id="node14" class="node">
<title>Logger</title>
<ellipse fill="#fdb462" stroke="#000000" cx="63" cy="-104" rx="38.8459" ry="18"/>
<text text-anchor="middle" x="63" y="-99.8" font-family="Times,serif" font-size="14.00" fill="#000000">Logger</text>
</g>
<!-- Logger&#45;&gt;AppModule -->
<g id="edge17" class="edge">
<title>Logger&#45;&gt;AppModule</title>
<path fill="none" stroke="#000000" d="M63,-122.0908C63,-145.1328 63,-182 63,-182 63,-182 643.0433,-182 643.0433,-182"/>
<polygon fill="#000000" stroke="#000000" points="643.0433,-185.5001 653.0433,-182 643.0432,-178.5001 643.0433,-185.5001"/>
</g>
</g>
</svg>
