<?xml version="1.0" encoding="UTF-8" standalone="no"?>
<!DOCTYPE svg PUBLIC "-//W3C//DTD SVG 1.1//EN"
 "http://www.w3.org/Graphics/SVG/1.1/DTD/svg11.dtd">
<!-- Generated by graphviz version 2.40.1 (20161225.0304)
 -->
<!-- Title: dependencies Pages: 1 -->
<svg width="1893pt" height="360pt"
 viewBox="0.00 0.00 1893.00 360.00" xmlns="http://www.w3.org/2000/svg" xmlns:xlink="http://www.w3.org/1999/xlink">
<g id="graph0" class="graph" transform="scale(1 1) rotate(0) translate(4 356)">
<title>dependencies</title>
<polygon fill="#ffffff" stroke="transparent" points="-4,4 -4,-356 1889,-356 1889,4 -4,4"/>
<text text-anchor="start" x="921.5091" y="-42.4" font-family="sans-serif" font-weight="bold" font-size="14.00" fill="#000000">Legend</text>
<polygon fill="#ffffb3" stroke="transparent" points="708.5,-10 708.5,-30 728.5,-30 728.5,-10 708.5,-10"/>
<text text-anchor="start" x="732.129" y="-15.4" font-family="sans-serif" font-size="14.00" fill="#000000"> &#160;Declarations</text>
<polygon fill="#8dd3c7" stroke="transparent" points="821.5,-10 821.5,-30 841.5,-30 841.5,-10 821.5,-10"/>
<text text-anchor="start" x="845.2251" y="-15.4" font-family="sans-serif" font-size="14.00" fill="#000000"> &#160;Module</text>
<polygon fill="#80b1d3" stroke="transparent" points="907.5,-10 907.5,-30 927.5,-30 927.5,-10 907.5,-10"/>
<text text-anchor="start" x="931.2812" y="-15.4" font-family="sans-serif" font-size="14.00" fill="#000000"> &#160;Bootstrap</text>
<polygon fill="#fdb462" stroke="transparent" points="1004.5,-10 1004.5,-30 1024.5,-30 1024.5,-10 1004.5,-10"/>
<text text-anchor="start" x="1028.1732" y="-15.4" font-family="sans-serif" font-size="14.00" fill="#000000"> &#160;Providers</text>
<polygon fill="#fb8072" stroke="transparent" points="1100.5,-10 1100.5,-30 1120.5,-30 1120.5,-10 1100.5,-10"/>
<text text-anchor="start" x="1124.2258" y="-15.4" font-family="sans-serif" font-size="14.00" fill="#000000"> &#160;Exports</text>
<g id="clust1" class="cluster">
<title>cluster_AppModule</title>
<polygon fill="none" stroke="#000000" stroke-dasharray="1,5" points="878,-146 878,-344 1548,-344 1548,-146 878,-146"/>
</g>
<g id="clust2" class="cluster">
<title>cluster_AppModule_declarations</title>
<polygon fill="none" stroke="#000000" points="1008,-154 1008,-206 1540,-206 1540,-154 1008,-154"/>
</g>
<g id="clust7" class="cluster">
<title>cluster_AppModule_imports</title>
<polygon fill="none" stroke="#000000" points="886,-154 886,-206 1000,-206 1000,-154 886,-154"/>
</g>
<g id="clust9" class="cluster">
<title>cluster_AppModule_bootstrap</title>
<polygon fill="none" stroke="#000000" points="1150,-284 1150,-336 1274,-336 1274,-284 1150,-284"/>
</g>
<g id="clust11" class="cluster">
<title>cluster_SharedModule</title>
<polygon fill="none" stroke="#000000" stroke-dasharray="1,5" points="8,-70 8,-138 1877,-138 1877,-70 8,-70"/>
</g>
<g id="clust12" class="cluster">
<title>cluster_SharedModule_declarations</title>
<polygon fill="none" stroke="#000000" points="866,-78 866,-130 1869,-130 1869,-78 866,-78"/>
</g>
<g id="clust21" class="cluster">
<title>cluster_SharedModule_exports</title>
<polygon fill="none" stroke="#000000" points="118,-78 118,-130 858,-130 858,-78 118,-78"/>
</g>
<g id="clust23" class="cluster">
<title>cluster_SharedModule_providers</title>
<polygon fill="none" stroke="#000000" points="16,-78 16,-130 110,-130 110,-78 16,-78"/>
</g>
<!-- AboutComponent -->
<g id="node1" class="node">
<title>AboutComponent</title>
<polygon fill="#ffffb3" stroke="#000000" points="1532.3301,-198 1415.6699,-198 1415.6699,-162 1532.3301,-162 1532.3301,-198"/>
<text text-anchor="middle" x="1474" y="-175.8" font-family="Times,serif" font-size="14.00" fill="#000000">AboutComponent</text>
</g>
<!-- AppModule -->
<g id="node5" class="node">
<title>AppModule</title>
<polygon fill="#8dd3c7" stroke="#000000" points="1253.6571,-263 1250.6571,-267 1229.6571,-267 1226.6571,-263 1170.3429,-263 1170.3429,-227 1253.6571,-227 1253.6571,-263"/>
<text text-anchor="middle" x="1212" y="-240.8" font-family="Times,serif" font-size="14.00" fill="#000000">AppModule</text>
</g>
<!-- AboutComponent&#45;&gt;AppModule -->
<g id="edge1" class="edge">
<title>AboutComponent&#45;&gt;AppModule</title>
<path fill="none" stroke="#000000" d="M1474,-198.2843C1474,-219.3211 1474,-251 1474,-251 1474,-251 1263.8044,-251 1263.8044,-251"/>
<polygon fill="#000000" stroke="#000000" points="1263.8044,-247.5001 1253.8044,-251 1263.8044,-254.5001 1263.8044,-247.5001"/>
</g>
<!-- AppComponent -->
<g id="node2" class="node">
<title>AppComponent</title>
<polygon fill="#ffffb3" stroke="#000000" points="1397.9399,-198 1292.0601,-198 1292.0601,-162 1397.9399,-162 1397.9399,-198"/>
<text text-anchor="middle" x="1345" y="-175.8" font-family="Times,serif" font-size="14.00" fill="#000000">AppComponent</text>
</g>
<!-- AppComponent&#45;&gt;AppModule -->
<g id="edge2" class="edge">
<title>AppComponent&#45;&gt;AppModule</title>
<path fill="none" stroke="#000000" d="M1345,-198.0225C1345,-215.3734 1345,-239 1345,-239 1345,-239 1263.7171,-239 1263.7171,-239"/>
<polygon fill="#000000" stroke="#000000" points="1263.7172,-235.5001 1253.7171,-239 1263.7171,-242.5001 1263.7172,-235.5001"/>
</g>
<!-- ContactComponent -->
<g id="node3" class="node">
<title>ContactComponent</title>
<polygon fill="#ffffb3" stroke="#000000" points="1274.3795,-198 1149.6205,-198 1149.6205,-162 1274.3795,-162 1274.3795,-198"/>
<text text-anchor="middle" x="1212" y="-175.8" font-family="Times,serif" font-size="14.00" fill="#000000">ContactComponent</text>
</g>
<!-- ContactComponent&#45;&gt;AppModule -->
<g id="edge3" class="edge">
<title>ContactComponent&#45;&gt;AppModule</title>
<path fill="none" stroke="#000000" d="M1212,-198.1061C1212,-198.1061 1212,-216.991 1212,-216.991"/>
<polygon fill="#000000" stroke="#000000" points="1208.5001,-216.9909 1212,-226.991 1215.5001,-216.991 1208.5001,-216.9909"/>
</g>
<!-- HomeComponent -->
<g id="node4" class="node">
<title>HomeComponent</title>
<polygon fill="#ffffb3" stroke="#000000" points="1131.5451,-198 1016.4549,-198 1016.4549,-162 1131.5451,-162 1131.5451,-198"/>
<text text-anchor="middle" x="1074" y="-175.8" font-family="Times,serif" font-size="14.00" fill="#000000">HomeComponent</text>
</g>
<!-- HomeComponent&#45;&gt;AppModule -->
<g id="edge4" class="edge">
<title>HomeComponent&#45;&gt;AppModule</title>
<path fill="none" stroke="#000000" d="M1074,-198.0225C1074,-215.3734 1074,-239 1074,-239 1074,-239 1160.221,-239 1160.221,-239"/>
<polygon fill="#000000" stroke="#000000" points="1160.221,-242.5001 1170.221,-239 1160.2209,-235.5001 1160.221,-242.5001"/>
</g>
<!-- AppComponent  -->
<g id="node7" class="node">
<title>AppComponent </title>
<polygon fill="#80b1d3" stroke="#000000" points="1266.439,-328 1157.561,-328 1157.561,-292 1266.439,-292 1266.439,-328"/>
<text text-anchor="middle" x="1212" y="-305.8" font-family="Times,serif" font-size="14.00" fill="#000000">AppComponent </text>
</g>
<!-- AppModule&#45;&gt;AppComponent  -->
<g id="edge6" class="edge">
<title>AppModule&#45;&gt;AppComponent </title>
<path fill="none" stroke="#000000" stroke-dasharray="1,5" d="M1212,-263.1061C1212,-263.1061 1212,-281.991 1212,-281.991"/>
<polygon fill="#000000" stroke="#000000" points="1208.5001,-281.9909 1212,-291.991 1215.5001,-281.991 1208.5001,-281.9909"/>
</g>
<!-- SharedModule -->
<g id="node6" class="node">
<title>SharedModule</title>
<polygon fill="#8dd3c7" stroke="#000000" points="992.4231,-198 989.4231,-202 968.4231,-202 965.4231,-198 893.5769,-198 893.5769,-162 992.4231,-162 992.4231,-198"/>
<text text-anchor="middle" x="943" y="-175.8" font-family="Times,serif" font-size="14.00" fill="#000000">SharedModule</text>
</g>
<!-- SharedModule&#45;&gt;AppModule -->
<g id="edge5" class="edge">
<title>SharedModule&#45;&gt;AppModule</title>
<path fill="none" stroke="#000000" d="M943,-198.2843C943,-219.3211 943,-251 943,-251 943,-251 1160.2639,-251 1160.2639,-251"/>
<polygon fill="#000000" stroke="#000000" points="1160.2639,-254.5001 1170.2639,-251 1160.2639,-247.5001 1160.2639,-254.5001"/>
</g>
<!-- ErrorpageComponent  -->
<g id="node15" class="node">
<title>ErrorpageComponent </title>
<polygon fill="#fb8072" stroke="#000000" points="850.2961,-122 709.7039,-122 709.7039,-86 850.2961,-86 850.2961,-122"/>
<text text-anchor="middle" x="780" y="-99.8" font-family="Times,serif" font-size="14.00" fill="#000000">ErrorpageComponent </text>
</g>
<!-- SharedModule&#45;&gt;ErrorpageComponent  -->
<g id="edge14" class="edge">
<title>SharedModule&#45;&gt;ErrorpageComponent </title>
<path fill="none" stroke="#000000" stroke-dasharray="5,2" d="M893.6523,-168C845.6772,-168 780,-168 780,-168 780,-168 780,-132.1686 780,-132.1686"/>
<polygon fill="#000000" stroke="#000000" points="783.5001,-132.1686 780,-122.1686 776.5001,-132.1687 783.5001,-132.1686"/>
</g>
<!-- FooterComponent  -->
<g id="node16" class="node">
<title>FooterComponent </title>
<polygon fill="#fb8072" stroke="#000000" points="691.8814,-122 570.1186,-122 570.1186,-86 691.8814,-86 691.8814,-122"/>
<text text-anchor="middle" x="631" y="-99.8" font-family="Times,serif" font-size="14.00" fill="#000000">FooterComponent </text>
</g>
<!-- SharedModule&#45;&gt;FooterComponent  -->
<g id="edge15" class="edge">
<title>SharedModule&#45;&gt;FooterComponent </title>
<path fill="none" stroke="#000000" stroke-dasharray="5,2" d="M893.5627,-173C805.5871,-173 631,-173 631,-173 631,-173 631,-132.1289 631,-132.1289"/>
<polygon fill="#000000" stroke="#000000" points="634.5001,-132.1289 631,-122.1289 627.5001,-132.129 634.5001,-132.1289"/>
</g>
<!-- NavbarComponent  -->
<g id="node17" class="node">
<title>NavbarComponent </title>
<polygon fill="#fb8072" stroke="#000000" points="552.0288,-122 425.9712,-122 425.9712,-86 552.0288,-86 552.0288,-122"/>
<text text-anchor="middle" x="489" y="-99.8" font-family="Times,serif" font-size="14.00" fill="#000000">NavbarComponent </text>
</g>
<!-- SharedModule&#45;&gt;NavbarComponent  -->
<g id="edge16" class="edge">
<title>SharedModule&#45;&gt;NavbarComponent </title>
<path fill="none" stroke="#000000" stroke-dasharray="5,2" d="M893.5498,-178C775.883,-178 489,-178 489,-178 489,-178 489,-132.2921 489,-132.2921"/>
<polygon fill="#000000" stroke="#000000" points="492.5001,-132.2921 489,-122.2921 485.5001,-132.2922 492.5001,-132.2921"/>
</g>
<!-- PersonComponent  -->
<g id="node18" class="node">
<title>PersonComponent </title>
<polygon fill="#fb8072" stroke="#000000" points="408.4348,-122 285.5652,-122 285.5652,-86 408.4348,-86 408.4348,-122"/>
<text text-anchor="middle" x="347" y="-99.8" font-family="Times,serif" font-size="14.00" fill="#000000">PersonComponent </text>
</g>
<!-- SharedModule&#45;&gt;PersonComponent  -->
<g id="edge17" class="edge">
<title>SharedModule&#45;&gt;PersonComponent </title>
<path fill="none" stroke="#000000" stroke-dasharray="5,2" d="M893.7198,-183C750.9257,-183 347,-183 347,-183 347,-183 347,-132.3228 347,-132.3228"/>
<polygon fill="#000000" stroke="#000000" points="350.5001,-132.3227 347,-122.3228 343.5001,-132.3228 350.5001,-132.3227"/>
</g>
<!-- ThankyouComponent  -->
<g id="node19" class="node">
<title>ThankyouComponent </title>
<polygon fill="#fb8072" stroke="#000000" points="267.6002,-122 126.3998,-122 126.3998,-86 267.6002,-86 267.6002,-122"/>
<text text-anchor="middle" x="197" y="-99.8" font-family="Times,serif" font-size="14.00" fill="#000000">ThankyouComponent </text>
</g>
<!-- SharedModule&#45;&gt;ThankyouComponent  -->
<g id="edge18" class="edge">
<title>SharedModule&#45;&gt;ThankyouComponent </title>
<path fill="none" stroke="#000000" stroke-dasharray="5,2" d="M893.7644,-188C727.4734,-188 197,-188 197,-188 197,-188 197,-132.2267 197,-132.2267"/>
<polygon fill="#000000" stroke="#000000" points="200.5001,-132.2267 197,-122.2267 193.5001,-132.2268 200.5001,-132.2267"/>
</g>
<!-- ErrorpageComponent -->
<g id="node8" class="node">
<title>ErrorpageComponent</title>
<polygon fill="#ffffb3" stroke="#000000" points="1860.7963,-122 1723.2037,-122 1723.2037,-86 1860.7963,-86 1860.7963,-122"/>
<text text-anchor="middle" x="1792" y="-99.8" font-family="Times,serif" font-size="14.00" fill="#000000">ErrorpageComponent</text>
</g>
<!-- ErrorpageComponent&#45;&gt;SharedModule -->
<g id="edge7" class="edge">
<title>ErrorpageComponent&#45;&gt;SharedModule</title>
<path fill="none" stroke="#000000" d="M1792,-122.2396C1792,-137.5706 1792,-157 1792,-157 1792,-157 979.9083,-157 979.9083,-157 979.9083,-157 979.9083,-157.4878 979.9083,-157.4878"/>
<polygon fill="#000000" stroke="#000000" points="976.4086,-151.8776 979.9083,-161.8777 983.4086,-151.8778 976.4086,-151.8776"/>
</g>
<!-- FooterComponent -->
<g id="node9" class="node">
<title>FooterComponent</title>
<polygon fill="#ffffb3" stroke="#000000" points="1704.8809,-122 1587.1191,-122 1587.1191,-86 1704.8809,-86 1704.8809,-122"/>
<text text-anchor="middle" x="1646" y="-99.8" font-family="Times,serif" font-size="14.00" fill="#000000">FooterComponent</text>
</g>
<!-- FooterComponent&#45;&gt;SharedModule -->
<g id="edge8" class="edge">
<title>FooterComponent&#45;&gt;SharedModule</title>
<path fill="none" stroke="#000000" d="M1646,-122.037C1646,-135.2913 1646,-151 1646,-151 1646,-151 967.6056,-151 967.6056,-151 967.6056,-151 967.6056,-152.0799 967.6056,-152.0799"/>
<polygon fill="#000000" stroke="#000000" points="964.1057,-151.7985 967.6056,-161.7985 971.1057,-151.7986 964.1057,-151.7985"/>
</g>
<!-- LoginComponent -->
<g id="node10" class="node">
<title>LoginComponent</title>
<polygon fill="#ffffb3" stroke="#000000" points="1569.2758,-122 1454.7242,-122 1454.7242,-86 1569.2758,-86 1569.2758,-122"/>
<text text-anchor="middle" x="1512" y="-99.8" font-family="Times,serif" font-size="14.00" fill="#000000">LoginComponent</text>
</g>
<!-- LoginComponent&#45;&gt;SharedModule -->
<g id="edge9" class="edge">
<title>LoginComponent&#45;&gt;SharedModule</title>
<path fill="none" stroke="#000000" d="M1493.3885,-122.1025C1493.3885,-133.0859 1493.3885,-145 1493.3885,-145 1493.3885,-145 955.3028,-145 955.3028,-145 955.3028,-145 955.3028,-151.68 955.3028,-151.68"/>
<polygon fill="#000000" stroke="#000000" points="951.8029,-151.6799 955.3028,-161.68 958.8029,-151.68 951.8029,-151.6799"/>
</g>
<!-- NavbarComponent -->
<g id="node11" class="node">
<title>NavbarComponent</title>
<polygon fill="#ffffb3" stroke="#000000" points="1436.0297,-122 1313.9703,-122 1313.9703,-86 1436.0297,-86 1436.0297,-122"/>
<text text-anchor="middle" x="1375" y="-99.8" font-family="Times,serif" font-size="14.00" fill="#000000">NavbarComponent</text>
</g>
<!-- NavbarComponent&#45;&gt;SharedModule -->
<g id="edge10" class="edge">
<title>NavbarComponent&#45;&gt;SharedModule</title>
<path fill="none" stroke="#000000" d="M1355.7276,-122.4218C1355.7276,-131.2791 1355.7276,-140 1355.7276,-140 1355.7276,-140 943,-140 943,-140 943,-140 943,-151.8726 943,-151.8726"/>
<polygon fill="#000000" stroke="#000000" points="939.5001,-151.8725 943,-161.8726 946.5001,-151.8726 939.5001,-151.8725"/>
</g>
<!-- PersonComponent -->
<g id="node12" class="node">
<title>PersonComponent</title>
<polygon fill="#ffffb3" stroke="#000000" points="1295.9356,-122 1176.0644,-122 1176.0644,-86 1295.9356,-86 1295.9356,-122"/>
<text text-anchor="middle" x="1236" y="-99.8" font-family="Times,serif" font-size="14.00" fill="#000000">PersonComponent</text>
</g>
<!-- PersonComponent&#45;&gt;SharedModule -->
<g id="edge11" class="edge">
<title>PersonComponent&#45;&gt;SharedModule</title>
<path fill="none" stroke="#000000" d="M1225.3612,-122.1432C1225.3612,-128.4611 1225.3612,-134 1225.3612,-134 1225.3612,-134 930.6972,-134 930.6972,-134 930.6972,-134 930.6972,-151.8196 930.6972,-151.8196"/>
<polygon fill="#000000" stroke="#000000" points="927.1973,-151.8195 930.6972,-161.8196 934.1973,-151.8196 927.1973,-151.8195"/>
</g>
<!-- RegisterComponent -->
<g id="node13" class="node">
<title>RegisterComponent</title>
<polygon fill="#ffffb3" stroke="#000000" points="1157.9846,-122 1030.0154,-122 1030.0154,-86 1157.9846,-86 1157.9846,-122"/>
<text text-anchor="middle" x="1094" y="-99.8" font-family="Times,serif" font-size="14.00" fill="#000000">RegisterComponent</text>
</g>
<!-- RegisterComponent&#45;&gt;SharedModule -->
<g id="edge12" class="edge">
<title>RegisterComponent&#45;&gt;SharedModule</title>
<path fill="none" stroke="#000000" d="M1080.8899,-122.1903C1080.8899,-125.5376 1080.8899,-128 1080.8899,-128 1080.8899,-128 918.3945,-128 918.3945,-128 918.3945,-128 918.3945,-151.8129 918.3945,-151.8129"/>
<polygon fill="#000000" stroke="#000000" points="914.8945,-151.8129 918.3945,-161.8129 921.8945,-151.813 914.8945,-151.8129"/>
</g>
<!-- ThankyouComponent -->
<g id="node14" class="node">
<title>ThankyouComponent</title>
<polygon fill="#ffffb3" stroke="#000000" points="1012.0996,-122 873.9004,-122 873.9004,-86 1012.0996,-86 1012.0996,-122"/>
<text text-anchor="middle" x="943" y="-99.8" font-family="Times,serif" font-size="14.00" fill="#000000">ThankyouComponent</text>
</g>
<!-- ThankyouComponent&#45;&gt;SharedModule -->
<g id="edge13" class="edge">
<title>ThankyouComponent&#45;&gt;SharedModule</title>
<path fill="none" stroke="#000000" d="M906.0917,-122.0109C906.0917,-122.0109 906.0917,-151.855 906.0917,-151.855"/>
<polygon fill="#000000" stroke="#000000" points="902.5918,-151.8549 906.0917,-161.855 909.5918,-151.855 902.5918,-151.8549"/>
</g>
<!-- Logger -->
<g id="node20" class="node">
<title>Logger</title>
<ellipse fill="#fdb462" stroke="#000000" cx="63" cy="-104" rx="38.8459" ry="18"/>
<text text-anchor="middle" x="63" y="-99.8" font-family="Times,serif" font-size="14.00" fill="#000000">Logger</text>
</g>
<!-- Logger&#45;&gt;SharedModule -->
<g id="edge19" class="edge">
<title>Logger&#45;&gt;SharedModule</title>
<path fill="none" stroke="#000000" d="M63,-122.0105C63,-148.0165 63,-193 63,-193 63,-193 883.4843,-193 883.4843,-193"/>
<polygon fill="#000000" stroke="#000000" points="883.4844,-196.5001 893.4843,-193 883.4843,-189.5001 883.4844,-196.5001"/>
</g>
</g>
</svg>
